<mxfile host="app.diagrams.net" modified="2024-05-27T13:38:40.155Z" agent="Mozilla/5.0 (Windows NT 10.0; Win64; x64; rv:126.0) Gecko/20100101 Firefox/126.0" version="24.4.9" etag="AN18JdRHrAkmefQ2_SxK" type="github">
  <diagram name="Seite-1" id="ajS7IONJm1tJpJQ3outj">
    <mxGraphModel>
      <root>
        <mxCell id="0" />
        <mxCell id="1" parent="0" />
      </root>
    </mxGraphModel>
  </diagram>
</mxfile>
